<svg xmlns="http://www.w3.org/2000/svg" xmlns:xlink="http://www.w3.org/1999/xlink" width="200" zoomAndPan="magnify" viewBox="0 0 150 74.999997" height="100" preserveAspectRatio="xMidYMid meet" version="1.0"><defs><g/><clipPath id="2d8c4ad43d"><path d="M 26 47 L 79.5 47 L 79.5 66 L 26 66 Z M 26 47 " clip-rule="nonzero"/></clipPath></defs><path fill="#ffffff" d="M 54.730469 70.171875 C 55.667969 69.894531 56.582031 69.574219 57.472656 69.214844 C 42.085938 72.257812 26.628906 63.140625 22.078125 47.808594 C 17.523438 32.472656 25.496094 16.398438 40.050781 10.550781 C 39.109375 10.738281 38.167969 10.964844 37.230469 11.246094 C 20.960938 16.078125 11.683594 33.1875 16.519531 49.457031 C 21.351562 65.730469 38.457031 75.003906 54.730469 70.171875 " fill-opacity="1" fill-rule="nonzero"/><path fill="#289db9" d="M 16.648438 62.371094 C 17.464844 63.011719 18.300781 63.601562 19.15625 64.152344 C 7.089844 52.722656 5.488281 33.769531 15.953125 20.429688 C 26.414062 7.089844 45.199219 4.121094 59.175781 13.113281 C 58.4375 12.414062 57.664062 11.742188 56.847656 11.101562 C 42.691406 0 22.214844 2.480469 11.113281 16.636719 C 0.015625 30.792969 2.492188 51.269531 16.648438 62.371094 " fill-opacity="1" fill-rule="nonzero"/><g clip-path="url(#2d8c4ad43d)"><path fill="#289db9" d="M 46.941406 60.882812 C 38.546875 58.625 31.640625 53.59375 26.945312 47.039062 C 30.644531 55.210938 37.84375 61.726562 47.183594 64.238281 C 59.390625 67.519531 71.847656 63.054688 79.347656 53.851562 C 70.628906 61.035156 58.683594 64.039062 46.941406 60.882812 " fill-opacity="1" fill-rule="nonzero"/></g><g fill="#ffffff" fill-opacity="1"><g transform="translate(21.307693, 44.085501)"><g><path d="M 11.890625 -11.140625 L 7.9375 -11.140625 L 6 0 L 3.3125 0 L 5.234375 -11.140625 L 1.328125 -11.140625 L 1.71875 -13.359375 L 12.296875 -13.359375 Z M 11.890625 -11.140625 "/></g></g></g><g fill="#ffffff" fill-opacity="1"><g transform="translate(31.797276, 44.085501)"><g><path d="M 5.765625 0 C 5.691406 -0.25 5.660156 -0.550781 5.671875 -0.90625 C 4.921875 -0.15625 4.078125 0.207031 3.140625 0.1875 C 2.265625 0.175781 1.539062 -0.101562 0.96875 -0.65625 C 0.40625 -1.21875 0.140625 -1.90625 0.171875 -2.71875 C 0.210938 -3.800781 0.664062 -4.628906 1.53125 -5.203125 C 2.40625 -5.785156 3.566406 -6.078125 5.015625 -6.078125 L 6.234375 -6.0625 L 6.359375 -6.65625 C 6.398438 -6.851562 6.410156 -7.046875 6.390625 -7.234375 C 6.359375 -7.515625 6.25 -7.738281 6.0625 -7.90625 C 5.875 -8.070312 5.628906 -8.15625 5.328125 -8.15625 C 4.921875 -8.164062 4.578125 -8.066406 4.296875 -7.859375 C 4.015625 -7.648438 3.832031 -7.347656 3.75 -6.953125 L 1.15625 -6.9375 C 1.195312 -7.882812 1.628906 -8.648438 2.453125 -9.234375 C 3.285156 -9.828125 4.3125 -10.117188 5.53125 -10.109375 C 6.65625 -10.085938 7.535156 -9.753906 8.171875 -9.109375 C 8.804688 -8.460938 9.070312 -7.632812 8.96875 -6.625 L 8.21875 -1.859375 L 8.171875 -1.28125 C 8.160156 -0.84375 8.210938 -0.472656 8.328125 -0.171875 L 8.3125 0 Z M 3.78125 -1.828125 C 4.53125 -1.804688 5.179688 -2.128906 5.734375 -2.796875 L 6.0625 -4.515625 L 5.15625 -4.53125 C 4.195312 -4.5 3.507812 -4.207031 3.09375 -3.65625 C 2.9375 -3.445312 2.84375 -3.195312 2.8125 -2.90625 C 2.757812 -2.570312 2.828125 -2.304688 3.015625 -2.109375 C 3.203125 -1.921875 3.457031 -1.828125 3.78125 -1.828125 Z M 3.78125 -1.828125 "/></g></g></g><g fill="#ffffff" fill-opacity="1"><g transform="translate(40.781422, 44.085501)"><g><path d="M 5.78125 -2.796875 C 5.875 -3.285156 5.535156 -3.640625 4.765625 -3.859375 L 3.921875 -4.078125 C 1.953125 -4.617188 0.992188 -5.578125 1.046875 -6.953125 C 1.078125 -7.890625 1.488281 -8.648438 2.28125 -9.234375 C 3.082031 -9.828125 4.046875 -10.117188 5.171875 -10.109375 C 6.296875 -10.097656 7.203125 -9.800781 7.890625 -9.21875 C 8.585938 -8.644531 8.941406 -7.875 8.953125 -6.90625 L 6.375 -6.90625 C 6.382812 -7.757812 5.960938 -8.191406 5.109375 -8.203125 C 4.703125 -8.203125 4.347656 -8.097656 4.046875 -7.890625 C 3.753906 -7.691406 3.578125 -7.421875 3.515625 -7.078125 C 3.421875 -6.585938 3.789062 -6.242188 4.625 -6.046875 L 5 -5.96875 C 5.84375 -5.757812 6.484375 -5.523438 6.921875 -5.265625 C 7.367188 -5.003906 7.710938 -4.679688 7.953125 -4.296875 C 8.203125 -3.910156 8.316406 -3.453125 8.296875 -2.921875 C 8.273438 -2.285156 8.070312 -1.734375 7.6875 -1.265625 C 7.300781 -0.796875 6.769531 -0.429688 6.09375 -0.171875 C 5.414062 0.0859375 4.703125 0.207031 3.953125 0.1875 C 2.847656 0.175781 1.925781 -0.140625 1.1875 -0.765625 C 0.457031 -1.390625 0.0859375 -2.191406 0.078125 -3.171875 L 2.53125 -3.15625 C 2.550781 -2.207031 3.054688 -1.726562 4.046875 -1.71875 C 4.523438 -1.71875 4.914062 -1.8125 5.21875 -2 C 5.53125 -2.195312 5.71875 -2.460938 5.78125 -2.796875 Z M 5.78125 -2.796875 "/></g></g></g><g fill="#ffffff" fill-opacity="1"><g transform="translate(49.361671, 44.085501)"><g><path d="M 4.328125 -3.953125 L 3.125 -2.90625 L 2.609375 0 L 0.03125 0 L 2.46875 -14.09375 L 5.0625 -14.09375 L 3.71875 -6.4375 L 4.234375 -6.984375 L 7.171875 -9.9375 L 10.5 -9.9375 L 6.15625 -5.65625 L 8.921875 0 L 6.078125 0 Z M 4.328125 -3.953125 "/></g></g></g><g fill="#289db9" fill-opacity="1"><g transform="translate(57.661294, 43.720325)"><g><path d="M 7.546875 -3.5625 C 7.671875 -4.289062 7.3125 -4.847656 6.46875 -5.234375 L 4.703125 -5.953125 C 2.640625 -6.867188 1.660156 -8.128906 1.765625 -9.734375 C 1.804688 -10.484375 2.050781 -11.144531 2.5 -11.71875 C 2.945312 -12.289062 3.570312 -12.738281 4.375 -13.0625 C 5.1875 -13.394531 6.0625 -13.554688 7 -13.546875 C 8.289062 -13.523438 9.332031 -13.140625 10.125 -12.390625 C 10.925781 -11.648438 11.320312 -10.65625 11.3125 -9.40625 L 8.625 -9.40625 C 8.65625 -10.007812 8.519531 -10.476562 8.21875 -10.8125 C 7.925781 -11.15625 7.46875 -11.332031 6.84375 -11.34375 C 6.226562 -11.351562 5.695312 -11.210938 5.25 -10.921875 C 4.800781 -10.628906 4.53125 -10.234375 4.4375 -9.734375 C 4.320312 -9.066406 4.769531 -8.535156 5.78125 -8.140625 L 7 -7.6875 L 7.6875 -7.359375 C 9.5 -6.460938 10.34375 -5.207031 10.21875 -3.59375 C 10.164062 -2.800781 9.914062 -2.117188 9.46875 -1.546875 C 9.019531 -0.984375 8.40625 -0.546875 7.625 -0.234375 C 6.851562 0.0664062 6.003906 0.207031 5.078125 0.1875 C 4.128906 0.175781 3.285156 -0.015625 2.546875 -0.390625 C 1.804688 -0.773438 1.242188 -1.316406 0.859375 -2.015625 C 0.492188 -2.648438 0.320312 -3.382812 0.34375 -4.21875 L 3.03125 -4.203125 C 2.945312 -2.753906 3.660156 -2.015625 5.171875 -1.984375 C 5.828125 -1.984375 6.363281 -2.128906 6.78125 -2.421875 C 7.207031 -2.710938 7.460938 -3.09375 7.546875 -3.5625 Z M 7.546875 -3.5625 "/></g></g></g><g fill="#289db9" fill-opacity="1"><g transform="translate(68.077604, 43.720325)"><g><path d="M 9.5625 -4.9375 C 9.4375 -3.894531 9.164062 -2.96875 8.75 -2.15625 C 8.332031 -1.351562 7.8125 -0.753906 7.1875 -0.359375 C 6.570312 0.0234375 5.890625 0.207031 5.140625 0.1875 C 4.179688 0.164062 3.421875 -0.1875 2.859375 -0.875 L 1.953125 3.8125 L -0.640625 3.8125 L 1.75 -9.9375 L 4.125 -9.9375 L 3.953125 -8.9375 C 4.671875 -9.75 5.515625 -10.140625 6.484375 -10.109375 C 7.460938 -10.085938 8.21875 -9.734375 8.75 -9.046875 C 9.289062 -8.367188 9.582031 -7.445312 9.625 -6.28125 C 9.632812 -5.894531 9.613281 -5.445312 9.5625 -4.9375 Z M 7 -5.125 L 7.046875 -6.015625 C 7.054688 -6.609375 6.945312 -7.078125 6.71875 -7.421875 C 6.488281 -7.773438 6.15625 -7.957031 5.71875 -7.96875 C 4.96875 -7.988281 4.347656 -7.671875 3.859375 -7.015625 L 3.109375 -2.921875 C 3.335938 -2.296875 3.828125 -1.972656 4.578125 -1.953125 C 5.191406 -1.929688 5.707031 -2.171875 6.125 -2.671875 C 6.539062 -3.179688 6.832031 -4 7 -5.125 Z M 7 -5.125 "/></g></g></g><g fill="#289db9" fill-opacity="1"><g transform="translate(77.54841, 43.720325)"><g><path d="M 3.96875 -8.828125 C 4.75 -9.691406 5.644531 -10.117188 6.65625 -10.109375 C 7.644531 -10.085938 8.367188 -9.734375 8.828125 -9.046875 C 9.296875 -8.367188 9.472656 -7.441406 9.359375 -6.265625 L 8.3125 0 L 5.71875 0 L 6.78125 -6.28125 C 6.800781 -6.519531 6.804688 -6.742188 6.796875 -6.953125 C 6.734375 -7.609375 6.347656 -7.945312 5.640625 -7.96875 C 4.941406 -7.988281 4.328125 -7.6875 3.796875 -7.0625 L 2.546875 0 L -0.03125 0 L 2.40625 -14.09375 L 5 -14.09375 Z M 3.96875 -8.828125 "/></g></g></g><g fill="#289db9" fill-opacity="1"><g transform="translate(86.964138, 43.720325)"><g><path d="M 4.75 0.1875 C 3.875 0.175781 3.101562 -0.0351562 2.4375 -0.453125 C 1.769531 -0.867188 1.269531 -1.441406 0.9375 -2.171875 C 0.601562 -2.910156 0.472656 -3.71875 0.546875 -4.59375 L 0.578125 -4.96875 C 0.671875 -5.9375 0.953125 -6.820312 1.421875 -7.625 C 1.890625 -8.4375 2.492188 -9.0625 3.234375 -9.5 C 3.972656 -9.9375 4.796875 -10.140625 5.703125 -10.109375 C 6.984375 -10.085938 7.953125 -9.617188 8.609375 -8.703125 C 9.265625 -7.785156 9.515625 -6.628906 9.359375 -5.234375 L 9.203125 -4.109375 L 3.125 -4.109375 C 3.09375 -3.460938 3.242188 -2.945312 3.578125 -2.5625 C 3.921875 -2.175781 4.382812 -1.976562 4.96875 -1.96875 C 5.90625 -1.9375 6.726562 -2.300781 7.4375 -3.0625 L 8.625 -1.59375 C 8.25 -1.03125 7.707031 -0.585938 7 -0.265625 C 6.300781 0.046875 5.550781 0.195312 4.75 0.1875 Z M 5.578125 -7.96875 C 5.097656 -7.988281 4.671875 -7.84375 4.296875 -7.53125 C 3.929688 -7.21875 3.597656 -6.675781 3.296875 -5.90625 L 6.859375 -5.90625 L 6.921875 -6.140625 C 6.953125 -6.378906 6.953125 -6.613281 6.921875 -6.84375 C 6.867188 -7.195312 6.722656 -7.472656 6.484375 -7.671875 C 6.242188 -7.867188 5.941406 -7.96875 5.578125 -7.96875 Z M 5.578125 -7.96875 "/></g></g></g><g fill="#289db9" fill-opacity="1"><g transform="translate(96.031042, 43.720325)"><g><path d="M 6.828125 -7.4375 C 6.472656 -7.5 6.179688 -7.53125 5.953125 -7.53125 C 5.035156 -7.5625 4.304688 -7.21875 3.765625 -6.5 L 2.609375 0 L 0.03125 0 L 1.75 -9.9375 L 4.1875 -9.9375 L 3.953125 -8.734375 C 4.566406 -9.660156 5.335938 -10.125 6.265625 -10.125 C 6.515625 -10.125 6.8125 -10.082031 7.15625 -10 Z M 6.828125 -7.4375 "/></g></g></g><g fill="#289db9" fill-opacity="1"><g transform="translate(101.89426, 43.720325)"><g><path d="M 4.75 0.1875 C 3.875 0.175781 3.101562 -0.0351562 2.4375 -0.453125 C 1.769531 -0.867188 1.269531 -1.441406 0.9375 -2.171875 C 0.601562 -2.910156 0.472656 -3.71875 0.546875 -4.59375 L 0.578125 -4.96875 C 0.671875 -5.9375 0.953125 -6.820312 1.421875 -7.625 C 1.890625 -8.4375 2.492188 -9.0625 3.234375 -9.5 C 3.972656 -9.9375 4.796875 -10.140625 5.703125 -10.109375 C 6.984375 -10.085938 7.953125 -9.617188 8.609375 -8.703125 C 9.265625 -7.785156 9.515625 -6.628906 9.359375 -5.234375 L 9.203125 -4.109375 L 3.125 -4.109375 C 3.09375 -3.460938 3.242188 -2.945312 3.578125 -2.5625 C 3.921875 -2.175781 4.382812 -1.976562 4.96875 -1.96875 C 5.90625 -1.9375 6.726562 -2.300781 7.4375 -3.0625 L 8.625 -1.59375 C 8.25 -1.03125 7.707031 -0.585938 7 -0.265625 C 6.300781 0.046875 5.550781 0.195312 4.75 0.1875 Z M 5.578125 -7.96875 C 5.097656 -7.988281 4.671875 -7.84375 4.296875 -7.53125 C 3.929688 -7.21875 3.597656 -6.675781 3.296875 -5.90625 L 6.859375 -5.90625 L 6.921875 -6.140625 C 6.953125 -6.378906 6.953125 -6.613281 6.921875 -6.84375 C 6.867188 -7.195312 6.722656 -7.472656 6.484375 -7.671875 C 6.242188 -7.867188 5.941406 -7.96875 5.578125 -7.96875 Z M 5.578125 -7.96875 "/></g></g></g><g fill="#289db9" fill-opacity="1"><g transform="translate(37.109835, 51.794076)"><g><path d="M -0.171875 1.046875 L 0.734375 -3.21875 L 1.15625 -3.21875 L 1.1875 -2.796875 C 1.269531 -2.921875 1.390625 -3.03125 1.546875 -3.125 C 1.703125 -3.226562 1.90625 -3.28125 2.15625 -3.28125 C 2.414062 -3.28125 2.628906 -3.21875 2.796875 -3.09375 C 2.972656 -2.96875 3.101562 -2.800781 3.1875 -2.59375 C 3.269531 -2.382812 3.3125 -2.15625 3.3125 -1.90625 C 3.3125 -1.675781 3.28125 -1.441406 3.21875 -1.203125 C 3.15625 -0.972656 3.054688 -0.757812 2.921875 -0.5625 C 2.796875 -0.375 2.632812 -0.21875 2.4375 -0.09375 C 2.238281 0.0195312 2.007812 0.078125 1.75 0.078125 C 1.488281 0.078125 1.269531 0.0195312 1.09375 -0.09375 C 0.925781 -0.21875 0.804688 -0.390625 0.734375 -0.609375 L 0.390625 1.046875 Z M 1.6875 -0.390625 C 1.851562 -0.390625 2 -0.429688 2.125 -0.515625 C 2.257812 -0.609375 2.367188 -0.726562 2.453125 -0.875 C 2.546875 -1.03125 2.613281 -1.195312 2.65625 -1.375 C 2.707031 -1.5625 2.734375 -1.75 2.734375 -1.9375 C 2.734375 -2.207031 2.664062 -2.421875 2.53125 -2.578125 C 2.40625 -2.734375 2.226562 -2.8125 2 -2.8125 C 1.769531 -2.8125 1.570312 -2.738281 1.40625 -2.59375 C 1.25 -2.445312 1.125 -2.257812 1.03125 -2.03125 C 0.945312 -1.8125 0.90625 -1.585938 0.90625 -1.359375 C 0.90625 -1.085938 0.972656 -0.859375 1.109375 -0.671875 C 1.242188 -0.484375 1.4375 -0.390625 1.6875 -0.390625 Z M 1.6875 -0.390625 "/></g></g></g><g fill="#289db9" fill-opacity="1"><g transform="translate(40.719219, 51.794076)"><g><path d="M 0.8125 0 C 0.5625 0 0.390625 -0.0351562 0.296875 -0.109375 C 0.210938 -0.179688 0.171875 -0.289062 0.171875 -0.4375 C 0.171875 -0.550781 0.1875 -0.675781 0.21875 -0.8125 L 0.96875 -4.34375 L 1.53125 -4.34375 L 0.796875 -0.90625 C 0.785156 -0.863281 0.773438 -0.820312 0.765625 -0.78125 C 0.765625 -0.738281 0.765625 -0.703125 0.765625 -0.671875 C 0.765625 -0.609375 0.785156 -0.5625 0.828125 -0.53125 C 0.867188 -0.5 0.941406 -0.484375 1.046875 -0.484375 L 1.28125 -0.484375 L 1.1875 0 Z M 0.8125 0 "/></g></g></g><g fill="#289db9" fill-opacity="1"><g transform="translate(42.400566, 51.794076)"><g><path d="M 1 0.078125 C 0.71875 0.078125 0.484375 0.00390625 0.296875 -0.140625 C 0.117188 -0.296875 0.03125 -0.503906 0.03125 -0.765625 C 0.03125 -0.972656 0.0859375 -1.148438 0.203125 -1.296875 C 0.316406 -1.441406 0.460938 -1.554688 0.640625 -1.640625 C 0.828125 -1.734375 1.03125 -1.800781 1.25 -1.84375 C 1.46875 -1.882812 1.675781 -1.914062 1.875 -1.9375 C 2.082031 -1.957031 2.257812 -1.976562 2.40625 -2 C 2.414062 -2.0625 2.425781 -2.117188 2.4375 -2.171875 C 2.445312 -2.222656 2.453125 -2.273438 2.453125 -2.328125 C 2.453125 -2.660156 2.253906 -2.828125 1.859375 -2.828125 C 1.648438 -2.828125 1.476562 -2.78125 1.34375 -2.6875 C 1.207031 -2.601562 1.101562 -2.484375 1.03125 -2.328125 L 0.546875 -2.484375 C 0.648438 -2.722656 0.8125 -2.914062 1.03125 -3.0625 C 1.25 -3.207031 1.515625 -3.28125 1.828125 -3.28125 C 2.203125 -3.28125 2.488281 -3.203125 2.6875 -3.046875 C 2.894531 -2.898438 3 -2.664062 3 -2.34375 C 3 -2.269531 2.992188 -2.195312 2.984375 -2.125 C 2.972656 -2.050781 2.953125 -1.945312 2.921875 -1.8125 C 2.898438 -1.675781 2.859375 -1.476562 2.796875 -1.21875 C 2.742188 -0.945312 2.707031 -0.710938 2.6875 -0.515625 C 2.664062 -0.328125 2.65625 -0.15625 2.65625 0 L 2.140625 0 L 2.109375 -0.40625 C 1.960938 -0.25 1.804688 -0.128906 1.640625 -0.046875 C 1.472656 0.0351562 1.257812 0.078125 1 0.078125 Z M 1.171875 -0.375 C 1.472656 -0.375 1.726562 -0.472656 1.9375 -0.671875 C 2.144531 -0.867188 2.273438 -1.128906 2.328125 -1.453125 L 2.359375 -1.5625 C 1.992188 -1.53125 1.679688 -1.488281 1.421875 -1.4375 C 1.171875 -1.394531 0.976562 -1.328125 0.84375 -1.234375 C 0.707031 -1.140625 0.640625 -1 0.640625 -0.8125 C 0.640625 -0.664062 0.691406 -0.554688 0.796875 -0.484375 C 0.898438 -0.410156 1.023438 -0.375 1.171875 -0.375 Z M 1.171875 -0.375 "/></g></g></g><g fill="#289db9" fill-opacity="1"><g transform="translate(45.782738, 51.794076)"><g><path d="M 0.046875 0 L 0.734375 -3.21875 L 1.15625 -3.21875 L 1.1875 -2.78125 C 1.300781 -2.914062 1.441406 -3.03125 1.609375 -3.125 C 1.785156 -3.226562 2.019531 -3.28125 2.3125 -3.28125 C 2.582031 -3.28125 2.796875 -3.203125 2.953125 -3.046875 C 3.109375 -2.898438 3.1875 -2.675781 3.1875 -2.375 C 3.1875 -2.226562 3.164062 -2.054688 3.125 -1.859375 L 2.71875 0 L 2.171875 0 L 2.546875 -1.8125 C 2.585938 -2 2.609375 -2.15625 2.609375 -2.28125 C 2.609375 -2.46875 2.566406 -2.597656 2.484375 -2.671875 C 2.398438 -2.753906 2.265625 -2.796875 2.078125 -2.796875 C 1.921875 -2.796875 1.765625 -2.757812 1.609375 -2.6875 C 1.460938 -2.625 1.332031 -2.507812 1.21875 -2.34375 C 1.101562 -2.175781 1.019531 -1.953125 0.96875 -1.671875 L 0.609375 0 Z M 0.046875 0 "/></g></g></g><g fill="#289db9" fill-opacity="1"><g transform="translate(49.353171, 51.794076)"><g><path d="M 0.046875 0 L 0.734375 -3.21875 L 1.15625 -3.21875 L 1.1875 -2.78125 C 1.300781 -2.914062 1.441406 -3.03125 1.609375 -3.125 C 1.785156 -3.226562 2.019531 -3.28125 2.3125 -3.28125 C 2.582031 -3.28125 2.796875 -3.203125 2.953125 -3.046875 C 3.109375 -2.898438 3.1875 -2.675781 3.1875 -2.375 C 3.1875 -2.226562 3.164062 -2.054688 3.125 -1.859375 L 2.71875 0 L 2.171875 0 L 2.546875 -1.8125 C 2.585938 -2 2.609375 -2.15625 2.609375 -2.28125 C 2.609375 -2.46875 2.566406 -2.597656 2.484375 -2.671875 C 2.398438 -2.753906 2.265625 -2.796875 2.078125 -2.796875 C 1.921875 -2.796875 1.765625 -2.757812 1.609375 -2.6875 C 1.460938 -2.625 1.332031 -2.507812 1.21875 -2.34375 C 1.101562 -2.175781 1.019531 -1.953125 0.96875 -1.671875 L 0.609375 0 Z M 0.046875 0 "/></g></g></g><g fill="#289db9" fill-opacity="1"><g transform="translate(52.923605, 51.794076)"><g><path d="M 1.546875 0.078125 C 1.117188 0.078125 0.78125 -0.0390625 0.53125 -0.28125 C 0.289062 -0.53125 0.171875 -0.867188 0.171875 -1.296875 C 0.171875 -1.671875 0.242188 -2.003906 0.390625 -2.296875 C 0.546875 -2.597656 0.757812 -2.835938 1.03125 -3.015625 C 1.3125 -3.191406 1.640625 -3.28125 2.015625 -3.28125 C 2.296875 -3.28125 2.53125 -3.21875 2.71875 -3.09375 C 2.914062 -2.976562 3.0625 -2.820312 3.15625 -2.625 C 3.257812 -2.425781 3.3125 -2.203125 3.3125 -1.953125 C 3.3125 -1.796875 3.289062 -1.632812 3.25 -1.46875 L 0.75 -1.46875 C 0.75 -1.4375 0.75 -1.40625 0.75 -1.375 C 0.75 -1.34375 0.75 -1.3125 0.75 -1.28125 C 0.75 -1.0625 0.789062 -0.882812 0.875 -0.75 C 0.957031 -0.625 1.066406 -0.535156 1.203125 -0.484375 C 1.335938 -0.429688 1.472656 -0.40625 1.609375 -0.40625 C 1.796875 -0.40625 1.953125 -0.429688 2.078125 -0.484375 C 2.210938 -0.546875 2.320312 -0.625 2.40625 -0.71875 L 2.921875 -0.5625 C 2.773438 -0.375 2.585938 -0.21875 2.359375 -0.09375 C 2.128906 0.0195312 1.859375 0.078125 1.546875 0.078125 Z M 0.828125 -1.90625 L 2.734375 -1.90625 C 2.742188 -1.925781 2.75 -1.941406 2.75 -1.953125 C 2.75 -1.972656 2.75 -1.992188 2.75 -2.015625 C 2.75 -2.140625 2.71875 -2.265625 2.65625 -2.390625 C 2.601562 -2.515625 2.515625 -2.613281 2.390625 -2.6875 C 2.273438 -2.769531 2.125 -2.8125 1.9375 -2.8125 C 1.769531 -2.8125 1.609375 -2.773438 1.453125 -2.703125 C 1.304688 -2.628906 1.175781 -2.523438 1.0625 -2.390625 C 0.945312 -2.265625 0.867188 -2.101562 0.828125 -1.90625 Z M 0.828125 -1.90625 "/></g></g></g><g fill="#289db9" fill-opacity="1"><g transform="translate(56.442105, 51.794076)"><g><path d="M 0.046875 0 L 0.734375 -3.21875 L 1.140625 -3.21875 L 1.203125 -2.625 C 1.328125 -2.8125 1.476562 -2.96875 1.65625 -3.09375 C 1.84375 -3.21875 2.097656 -3.28125 2.421875 -3.28125 L 2.484375 -3.28125 L 2.359375 -2.703125 C 2.242188 -2.703125 2.132812 -2.691406 2.03125 -2.671875 C 1.695312 -2.617188 1.441406 -2.472656 1.265625 -2.234375 C 1.085938 -1.992188 0.960938 -1.691406 0.890625 -1.328125 L 0.609375 0 Z M 0.046875 0 "/></g></g></g></svg>